<?xml version="1.0" encoding="utf-8"?>
<!-- Generator: Adobe Illustrator 21.1.0, SVG Export Plug-In . SVG Version: 6.00 Build 0)  -->
<svg version="1.1" id="Ebene_1" xmlns="http://www.w3.org/2000/svg" xmlns:xlink="http://www.w3.org/1999/xlink" x="0px" y="0px"
	 viewBox="0 0 595.3 141.7" style="enable-background:new 0 0 595.3 141.7;" xml:space="preserve">
<style type="text/css">
	.st0{clip-path:url(#SVGID_2_);}
	.st1{fill:#1C234C;}
</style>
<title>PrivacyWeek</title>
<g>
	<defs>
		<rect id="SVGID_1_" y="0" width="595.3" height="141.7"/>
	</defs>
	<clipPath id="SVGID_2_">
		<use xlink:href="#SVGID_1_"  style="overflow:visible;"/>
	</clipPath>
	<g class="st0">
		<path class="st1" d="M536.4,70.8v-0.1l22.2-22h-11.3l-21.5,22l22,22.5h11.5L536.4,70.8z M525.4,48.6h-8v44.5h8V48.6L525.4,48.6z
			 M508.6,85.8h-28.2l0.8-0.8v-9.8l-0.8-0.8h25.6v-7.3h-25.6l0.8-0.8v-9.8l-0.8-0.8h28.2v-7.2h-35.4v44.5h35.4L508.6,85.8
			L508.6,85.8z M464.4,85.8h-28.2l0.8-0.8v-9.8l-0.8-0.8h25.6v-7.3h-25.6l0.8-0.8v-9.8l-0.8-0.8h28.2v-7.2H429v44.5h35.4L464.4,85.8
			L464.4,85.8z M414.3,48.6l-7.9,28.8l-0.8,4.4h-0.1l-0.8-4.4l-8.1-28.8h-6l-8,28.8l-0.8,4.6h-0.1l-0.8-4.6l-7.9-28.8h-8.5
			l12.6,44.4h8.7l6.7-24.2l0.9-4.8h0.1l0.8,4.8l6.7,24.2h9l12.6-44.5L414.3,48.6L414.3,48.6z M352.6,48.6l-10.6,14.8l-2.6,4.5h-0.1
			l-2.7-4.6l-10.6-14.8h-10l19.3,26v18.5h8V74.6l19.3-26L352.6,48.6L352.6,48.6z M307.7,80.6c-3.2,4-6.8,5.8-12.3,5.8
			c-10.8,0-15-6.5-15-15.3c0-9,4.5-15.8,15.1-15.8c5.5,0,9.1,1.8,12.2,5.7l5.7-5.8c-4.7-4.9-10.4-7.2-18-7.2
			c-14.9,0-23.2,9.7-23.2,23.1s7.9,22.5,23.1,22.5c7.5,0,13.3-2.4,18.1-7.4L307.7,80.6z M249.3,48.6h-7.4l-20.8,44.5h8.7l4.6-9.9
			l-0.4-0.7h23.1l-0.4,0.7l4.6,9.9h8.7L249.3,48.6z M237.8,75.3l0.8-0.7l5.8-12.5l1.3-3.7h0.1l1.1,3.7l5.8,12.5l0.8,0.7H237.8z
			 M216.2,48.6l-13.1,30.5l-1.3,4.4h-0.1l-1.3-4.4l-13.1-30.5h-8.8l19.6,44.5h7.4L225,48.6H216.2L216.2,48.6z M172.5,48.6h-8v44.5h8
			V48.6z M151.5,78.2c-1-2-2.6-3.7-4.7-4.7v-0.1c4.1-1.9,7.9-6,7.9-11c0-9.3-7.7-13.7-16.3-13.7h-20.9v44.4h8V76.6l-0.8-0.8h9.4
			c5.4,0,8.2,1.8,10.1,5.6l5.9,11.8h8.9L151.5,78.2z M146.5,62.3c0,3.5-2.9,6.3-8.8,6.3h-13.1l0.8-0.8V56.6l-0.8-0.8h13.7
			C143.4,55.9,146.5,57.7,146.5,62.3 M110.1,62.8c0-8.3-5.9-14.2-16-14.2H72.3v44.5h8V77.8l-0.8-0.8H94
			C104.3,77.1,110.1,70.8,110.1,62.8 M102,62.8c0,4.1-2.4,7-8,7H79.5l0.8-0.8V56.6l-0.8-0.8H94C99.6,55.9,101.9,58.6,102,62.8
			 M65.8,59.6H60l0.5-0.7l2.7-10.3H57l-2.7,10.3l0.2,0.7h-11l0.6-0.7l2.6-10.3h-6.3L37.8,59l0.3,0.7h-7.3v6h5.8L36,66.4l-2.4,9
			l0.3,0.7h-7.3v6h5.8l-0.7,0.7l-2.6,10.3h6.3L38,82.8l-0.3-0.7h11.1l-0.7,0.7l-2.6,10.3h6.3l2.6-10.3l-0.2-0.7h7.4v-6h-5.8l0.6-0.8
			l2.3-8.9l-0.3-0.7h7.4L65.8,59.6L65.8,59.6z M52.4,66.4l-2.3,8.9l0.2,0.8h-11l0.5-0.7l2.3-9l-0.3-0.7h11.2L52.4,66.4z"/>
	</g>
</g>
</svg>
